HIERARCHY
ROOT Hips
{
  OFFSET 48.13 95.1039 17.1629
  CHANNELS 6 Xposition Yposition Zposition Zrotation Xrotation Yrotation
  JOINT spine
  {
    OFFSET 0 7.96568 0.458067
    CHANNELS 3 Zrotation Xrotation Yrotation
    JOINT spine1
    {
      OFFSET 0 10.2431 0
      CHANNELS 3 Zrotation Xrotation Yrotation
      JOINT spine2
      {
        OFFSET 0 9.81475 0
        CHANNELS 3 Zrotation Xrotation Yrotation
        JOINT Neck
        {
          OFFSET 0 25.1986 1.20138
          CHANNELS 3 Zrotation Xrotation Yrotation
          JOINT Head
          {
            OFFSET 0 7.61315 0
            CHANNELS 3 Zrotation Xrotation Yrotation
            End Site
            {
              OFFSET 0 18.4281 -6.07732
            }
          }
        }
        JOINT RightShoulder
        {
          OFFSET -4.1327 10.5992 -0.575451
          CHANNELS 3 Zrotation Xrotation Yrotation
          JOINT RightArm
          {
            OFFSET 0 13.9018 0
            CHANNELS 3 Zrotation Xrotation Yrotation
            JOINT RightArmRoll
            {
              OFFSET 0 7.01788 0
              CHANNELS 3 Zrotation Xrotation Yrotation
              JOINT RightForeArm
              {
                OFFSET 0 20.4406 0
                CHANNELS 3 Zrotation Xrotation Yrotation
                JOINT RightForeArmRoll
                {
                  OFFSET 0 7.87515 0
                  CHANNELS 3 Zrotation Xrotation Yrotation
                  JOINT RightHand
                  {
                    OFFSET 0 15.8037 0
                    CHANNELS 3 Zrotation Xrotation Yrotation
                    End Site
                    {
                      OFFSET 0 0 0
                    }
                  }
                }
              }
            }
          }
        }
        JOINT LeftShoulder
        {
          OFFSET 4.1327 10.5992 -0.575451
          CHANNELS 3 Zrotation Xrotation Yrotation
          JOINT LeftArm
          {
            OFFSET 0 13.9018 0
            CHANNELS 3 Zrotation Xrotation Yrotation
            JOINT LeftArmRoll
            {
              OFFSET 0 7.01789 0
              CHANNELS 3 Zrotation Xrotation Yrotation
              JOINT LeftForeArm
              {
                OFFSET 0 20.4406 0
                CHANNELS 3 Zrotation Xrotation Yrotation
                JOINT LeftForeArmRoll
                {
                  OFFSET 0 7.87516 0
                  CHANNELS 3 Zrotation Xrotation Yrotation
                  JOINT LeftHand
                  {
                    OFFSET 0 15.8037 0
                    CHANNELS 3 Zrotation Xrotation Yrotation
                    End Site
                    {
                      OFFSET 0 0 0
                    }
                  }
                }
              }
            }
          }
        }
      }
    }
  }
  JOINT RightUpLeg
  {
    OFFSET -7.06048 -1.2947 -1.0861
    CHANNELS 3 Zrotation Xrotation Yrotation
    JOINT RightUpLegRoll
    {
      OFFSET 0 18.5308 0
      CHANNELS 3 Zrotation Xrotation Yrotation
      JOINT RightLeg
      {
        OFFSET 0 -22.9476 0
        CHANNELS 3 Zrotation Xrotation Yrotation
        JOINT RightLegRoll
        {
          OFFSET 0 23.0226 0
          CHANNELS 3 Zrotation Xrotation Yrotation
          JOINT RightFoot
          {
            OFFSET 0 19.1625 0
            CHANNELS 3 Zrotation Xrotation Yrotation
            JOINT RightToeBase
            {
              OFFSET 0 16.0188 0
              CHANNELS 3 Zrotation Xrotation Yrotation
              End Site
              {
                OFFSET 0.00678979 7.75782 -0.894206
              }
            }
          }
        }
      }
    }
  }
  JOINT LeftUpLeg
  {
    OFFSET 7.06048 -1.2947 -1.0861
    CHANNELS 3 Zrotation Xrotation Yrotation
    JOINT LeftUpLegRoll
    {
      OFFSET 0 18.5309 0
      CHANNELS 3 Zrotation Xrotation Yrotation
      JOINT LeftLeg
      {
        OFFSET 0 22.9475 0
        CHANNELS 3 Zrotation Xrotation Yrotation
        JOINT LeftLegRoll
        {
          OFFSET 0 23.2355 0
          CHANNELS 3 Zrotation Xrotation Yrotation
          JOINT LeftFoot
          {
            OFFSET 0 18.9496 0
            CHANNELS 3 Zrotation Xrotation Yrotation
            JOINT LeftToeBase
            {
              OFFSET 0 16.0188 0
              CHANNELS 3 Zrotation Xrotation Yrotation
              End Site
              {
                OFFSET -0.0304289 7.75782 -0.894206
              }
            }
          }
        }
      }
    }
  }
}
MOTION
Frames: 10
Frame Time: 0.00208333
58.9291 126.54 6.67461 -7.54741 2.37251 1.32201 1.19134 -0.89136 -0.0346662 2.38364 2.2168 -0.205359 2.38847 3.86102 -0.245472 4.75379 4.67518 -1.45989 -1.69203 -5.81434 -0.79165 62.2358 -6.12405 -3.96784 98.2408 -4.88829 29.0816 5.20787e-006 -1.12346e-006 1.93286e-006 6.41822 0.263776 -0.173683 -3.14184e-006 -3.70382e-006 -3.01373 8.02967 -4.95141 0.697653 -54.1839 0.183076 -0.698544 -100.82 4.31476 -4.69742 1.59875e-006 2.23114e-006 -2.89788e-006 -20.051 19.9272 3.44838 9.03013e-006 5.52089e-007 3.00843 -8.03014 -4.9514 -0.697657 179.286 7.50039 -1.28838 180 7.01545e-015 178.912 174.458 16.5525 -179.91 -3.00586e-007 -2.57474e-006 0.264829 -18.2702 67.4068 19.071 8.13649 25.2327 -3.48774 -165.59 10.1228 -5.47679 4.54188e-006 -4.6773e-006 -1.05324 -1.79543 -17.8856 0.228041 3.15628e-006 -4.48877e-006 -0.304855 19.7592 69.1944 -20.5862 -8.13649 25.2327 3.48773 
58.9091 126.561 6.67347 -7.69457 2.40391 1.34498 1.22474 -0.896262 -0.0349531 2.45043 2.20685 -0.209667 2.45537 3.85103 -0.250902 4.71442 4.7787 -1.45822 -1.68593 -5.85177 -0.792766 62.216 -6.1206 -3.96486 98.3152 -5.02735 29.2203 5.20787e-006 -1.12346e-006 1.93286e-006 6.34283 0.216655 -0.177835 -3.14184e-006 -3.70382e-006 -3.01446 8.02967 -4.95141 0.697653 -54.1615 0.174875 -0.696075 -100.882 4.16883 -4.64197 1.59875e-006 2.23114e-006 -2.89788e-006 -20.1047 20.0074 3.47011 9.03013e-006 5.52089e-007 3.00843 -8.03014 -4.9514 -0.697657 179.453 7.48194 -1.38751 180 7.01545e-015 178.916 174.441 16.4671 -179.906 -3.00586e-007 -2.57474e-006 0.264472 -18.2602 67.3945 19.0618 8.13649 25.2327 -3.48774 -165.406 10.1792 -5.56595 4.54188e-006 -4.6773e-006 -1.05066 -1.75433 -17.8925 0.235123 3.15628e-006 -4.48877e-006 -0.305619 19.7618 69.2014 -20.5924 -8.13649 25.2327 3.48773 
58.5451 126.567 6.69127 -7.82003 2.43623 1.36504 1.25344 -0.901087 -0.0350228 2.50785 2.19708 -0.213006 2.51288 3.84123 -0.255205 4.68175 4.87751 -1.45732 -1.6848 -5.88621 -0.794237 62.2061 -6.11832 -3.96304 98.38 -5.16443 29.3564 5.20787e-006 -1.12346e-006 1.93286e-006 6.27047 0.173071 -0.18222 -3.14184e-006 -3.70382e-006 -3.01522 8.02967 -4.95141 0.697653 -54.1353 0.169081 -0.695769 -100.947 4.01872 -4.58668 1.59875e-006 2.23114e-006 -2.89788e-006 -20.1573 20.0935 3.49298 9.03013e-006 5.52089e-007 3.00843 -8.03014 -4.9514 -0.697657 179.591 7.47064 -1.47014 180 7.01546e-015 178.918 174.425 16.3903 -179.903 -3.00586e-007 -2.57474e-006 0.26406 -18.2534 67.386 19.0555 8.13649 25.2327 -3.48774 -165.251 10.2291 -5.63789 4.54188e-006 -4.6773e-006 -1.04858 -1.71575 -17.8878 0.241557 3.15628e-006 -4.48877e-006 -0.306004 19.7612 69.2041 -20.5946 -8.13649 25.2327 3.48773 
58.5988 126.581 6.67238 -7.91924 2.4693 1.38159 1.27648 -0.905702 -0.0348051 2.55392 2.18776 -0.215127 2.55901 3.83188 -0.258099 4.65701 4.97053 -1.4574 -1.68917 -5.91702 -0.79614 62.2077 -6.11736 -3.96252 98.4338 -5.29913 29.4901 5.20787e-006 -1.12346e-006 1.93286e-006 6.20112 0.13202 -0.186634 -3.14184e-006 -3.70382e-006 -3.01603 8.02967 -4.95141 0.697653 -54.1047 0.166063 -0.697931 -101.014 3.86449 -4.53128 1.59875e-006 2.23114e-006 -2.89788e-006 -20.2089 20.1859 3.51706 9.03013e-006 5.52089e-007 3.00843 -8.03014 -4.9514 -0.697657 179.694 7.46793 -1.53237 180 7.01546e-015 178.921 174.41 16.325 -179.901 -3.00586e-007 -2.57474e-006 0.263608 -18.2503 67.3822 19.0527 8.13649 25.2327 -3.48774 -165.13 10.2708 -5.68925 4.54188e-006 -4.6773e-006 -1.0471 -1.6804 -17.8696 0.247188 3.15628e-006 -4.48877e-006 -0.305943 19.7566 69.2015 -20.5919 -8.13649 25.2327 3.48773 
58.4653 126.59 6.74323 -7.98767 2.50291 1.39405 1.29286 -0.909975 -0.0342302 2.58667 2.17916 -0.21578 2.5918 3.82325 -0.2593 4.64138 5.05671 -1.45863 -1.6996 -5.94354 -0.798553 62.2225 -6.11783 -3.96347 98.475 -5.43105 29.6218 5.20787e-006 -1.12346e-006 1.93286e-006 6.13479 0.0924976 -0.190874 -3.14184e-006 -3.70382e-006 -3.01687 8.02967 -4.95141 0.697653 -54.0694 0.166189 -0.702869 -101.083 3.70624 -4.47547 1.59875e-006 2.23114e-006 -2.89788e-006 -20.2595 20.285 3.54245 9.03013e-006 5.52089e-007 3.00843 -8.03014 -4.9514 -0.697657 179.755 7.47526 -1.57031 180 7.01547e-015 178.922 174.396 16.2741 -179.898 -3.00586e-007 -2.57474e-006 0.26313 -18.2514 67.3837 19.0538 8.13649 25.2327 -3.48774 -165.05 10.3029 -5.71666 4.54188e-006 -4.6773e-006 -1.04632 -1.649 -17.8361 0.25186 3.15628e-006 -4.48877e-006 -0.305372 19.7475 69.193 -20.5837 -8.13649 25.2327 3.48773 
58.4138 126.587 6.71937 -8.02078 2.5369 1.40183 1.3016 -0.913771 -0.0332283 2.60415 2.17155 -0.214714 2.60927 3.81564 -0.258525 4.63608 5.13497 -1.46123 -1.71661 -5.9651 -0.801555 62.252 -6.11987 -3.96602 98.502 -5.5598 29.7514 5.20787e-006 -1.12346e-006 1.93286e-006 6.0715 0.0534984 -0.194738 -3.14184e-006 -3.70382e-006 -3.01775 8.02967 -4.95141 0.697653 -54.0289 0.169829 -0.710889 -101.153 3.54404 -4.41898 1.59875e-006 2.23114e-006 -2.89788e-006 -20.3093 20.3909 3.56925 9.03013e-006 5.52089e-007 3.00843 -8.03014 -4.9514 -0.697657 179.769 7.49407 -1.58007 180 7.01547e-015 178.923 174.383 16.2404 -179.896 -3.00586e-007 -2.57474e-006 0.26264 -18.2573 67.3912 19.0594 8.13649 25.2327 -3.48774 -165.017 10.3238 -5.71677 4.54188e-006 -4.6773e-006 -1.04634 -1.62224 -17.7853 0.255418 3.15628e-006 -4.48877e-006 -0.304223 19.7333 69.1777 -20.5691 -8.13649 25.2327 3.48773 
58.5028 126.574 6.73686 -8.01605 2.57139 1.40446 1.30224 -0.917334 -0.031667 2.60543 2.16445 -0.211609 2.61051 3.80854 -0.255439 4.64337 5.20748 -1.4659 -1.74404 -5.98169 -0.805885 62.2983 -6.12421 -3.9707 98.512 -5.68593 29.8788 5.20787e-006 -1.12346e-006 1.93286e-006 6.01187 0.0191518 -0.198957 -3.14184e-006 -3.70382e-006 -3.01871 8.02967 -4.95141 0.697653 -53.9812 0.177954 -0.722932 -101.228 3.37594 -4.36392 1.59875e-006 2.23114e-006 -2.89788e-006 -20.3564 20.5043 3.59728 9.03013e-006 5.52089e-007 3.00843 -8.03014 -4.9514 -0.697657 179.732 7.52481 -1.55963 180 7.01547e-015 178.924 174.371 16.2243 -179.893 -3.00586e-007 -2.57474e-006 0.2621 -18.2687 67.4055 19.07 8.13649 25.2327 -3.48774 -165.035 10.3319 -5.68595 4.54188e-006 -4.6773e-006 -1.04725 -1.59911 -17.7141 0.257974 3.15628e-006 -4.48877e-006 -0.302417 19.7133 69.1547 -20.5475 -8.13649 25.2327 3.48773 
58.7863 126.57 6.69493 -7.97689 2.60673 1.40225 1.29559 -0.920997 -0.0295301 2.59211 2.15719 -0.206521 2.59712 3.80129 -0.250124 4.6635 5.27706 -1.47292 -1.78407 -5.99404 -0.811996 62.3607 -6.13124 -3.97769 98.5042 -5.81032 30.0031 5.20787e-006 -1.12346e-006 1.93286e-006 5.95638 -0.00635303 -0.204303 -3.14184e-006 -3.70382e-006 -3.01978 8.02967 -4.95141 0.697653 -53.9252 0.19085 -0.739337 -101.31 3.20043 -4.31216 1.59875e-006 2.23114e-006 -2.89788e-006 -20.3996 20.6252 3.62632 9.03013e-006 5.52089e-007 3.00843 -8.03014 -4.9514 -0.697657 179.648 7.56615 -1.51201 180 7.01547e-015 178.924 174.36 16.2229 -179.891 -3.00586e-007 -2.57474e-006 0.261464 -18.2855 67.4265 19.0857 8.13649 25.2327 -3.48774 -165.101 10.3278 -5.62543 4.54188e-006 -4.6773e-006 -1.04903 -1.57801 -17.6222 0.259784 3.15628e-006 -4.48877e-006 -0.299971 19.6879 69.1245 -20.5193 -8.13649 25.2327 3.48773 
58.9494 126.54 6.67322 -7.90761 2.64298 1.39582 1.28255 -0.924759 -0.0269218 2.56601 2.14977 -0.19976 2.5709 3.79389 -0.24292 4.69471 5.34363 -1.48187 -1.83477 -6.00263 -0.819534 62.4374 -6.14058 -3.98669 98.4811 -5.93308 30.1245 5.20787e-006 -1.12346e-006 1.93286e-006 5.90476 -0.0239311 -0.210631 -3.14184e-006 -3.70382e-006 -3.02094 8.02967 -4.95141 0.697653 -53.862 0.207856 -0.759504 -101.398 3.01823 -4.26306 1.59875e-006 2.23114e-006 -2.89788e-006 -20.4395 20.7532 3.6564 9.03013e-006 5.52089e-007 3.00843 -8.03014 -4.9514 -0.697657 179.524 7.61686 -1.44087 180 7.01547e-015 178.923 174.349 16.2338 -179.889 -3.00586e-007 -2.57474e-006 0.260737 -18.3069 67.4534 19.1058 8.13649 25.2327 -3.48774 -165.208 10.3133 -5.53911 4.54188e-006 -4.6773e-006 -1.05157 -1.55884 -17.5125 0.260921 3.15628e-006 -4.48877e-006 -0.296966 19.6578 69.088 -20.4853 -8.13649 25.2327 3.48773 
58.9129 126.528 6.68143 -7.81252 2.68023 1.3858 1.26402 -0.92862 -0.0239462 2.52894 2.14218 -0.191638 2.53369 3.78632 -0.23417 4.73522 5.40709 -1.49231 -1.89421 -6.00798 -0.828147 62.5262 -6.15183 -3.99737 98.4447 -6.05431 30.243 5.20787e-006 -1.12346e-006 1.93286e-006 5.85675 -0.0344974 -0.217798 -3.14184e-006 -3.70382e-006 -3.02218 8.02967 -4.95141 0.697653 -53.7928 0.228314 -0.782829 -101.491 2.83006 -4.216 1.59875e-006 2.23114e-006 -2.89788e-006 -20.4768 20.8877 3.68753 9.03013e-006 5.52089e-007 3.00843 -8.03014 -4.9514 -0.697657 179.364 7.67569 -1.34985 180 7.01547e-015 178.922 174.339 16.2548 -179.887 -3.00586e-007 -2.57474e-006 0.259925 -18.3324 67.4852 19.1296 8.13649 25.2327 -3.48774 -165.35 10.2901 -5.4309 4.54188e-006 -4.6773e-006 -1.05474 -1.5415 -17.3875 0.261453 3.15628e-006 -4.48877e-006 -0.293483 19.6237 69.046 -20.4464 -8.13649 25.2327 3.48773 
